<?xml version="1.0" encoding="utf-8"?>
<!-- Generator: Adobe Illustrator 26.0.2, SVG Export Plug-In . SVG Version: 6.00 Build 0)  -->
<svg version="1.1" id="Слой_1" xmlns="http://www.w3.org/2000/svg" xmlns:xlink="http://www.w3.org/1999/xlink" x="0px" y="0px"
	 viewBox="0 0 265 50" style="enable-background:new 0 0 265 50;" xml:space="preserve">
<style type="text/css">
	.st0{fill:#FFFFFF;}
</style>
<g id="logo_00000142868439721429458530000016587210115431119754_">
	<g>
		<g>
			<g>
				<g>
					<path class="st0" d="M11.3,23.1H9c-0.5,0-1,0.4-1,1v1c0,0.5,0.4,1,1,1h2.3c0.5,0,1-0.4,1-1v-1C12.3,23.6,11.8,23.1,11.3,23.1z"
						/>
				</g>
				<g>
					<path class="st0" d="M14.8,24.1v1c0,0.5,0.4,1,1,1h13.7h1.4h0.6c0.5,0,1-0.4,1-1V2.6c0-0.5-0.4-1-1-1h-1c-0.5,0-1,0.4-1,1v19.6
						c0,0.5-0.4,1-1,1H15.8C15.2,23.1,14.8,23.6,14.8,24.1z"/>
				</g>
				<g>
					<path class="st0" d="M40.4,29.2h-9.9c-0.5,0-1,0.4-1,1v1c0,0.5,0.4,1,1,1h9.9c0.5,0,1-0.4,1-1v-1
						C41.3,29.7,40.9,29.2,40.4,29.2z"/>
				</g>
				<g>
					<path class="st0" d="M50.1,44.7h-7.8c-0.5,0-1,0.4-1,1v1c0,0.5,0.4,1,1,1h8.8h2c0.5,0,1-0.4,1-1v-2v-7.2c0-0.5-0.4-1-1-1h-1
						c-0.5,0-1,0.4-1,1v6.2C51.1,44.2,50.6,44.7,50.1,44.7z"/>
				</g>
				<g>
					<path class="st0" d="M45.3,39.5h1.9c0.5,0,1-0.4,1-1v-1c0-0.5-0.4-1-1-1h-2.9h-2l0,0c-0.5,0-1,0.4-1,1v3c0,0.5,0.4,1,1,1h1
						c0.5,0,1-0.4,1-1l0,0C44.3,39.9,44.8,39.5,45.3,39.5z"/>
				</g>
				<g>
					<path class="st0" d="M46.2,30h1c0.5,0,1-0.4,1-1v-4.9c0-0.5-0.4-1-1-1h-1.1h-0.9h-8.6c-0.5,0-1,0.4-1,1v1c0,0.5,0.4,1,1,1h7.6
						c0.5,0,1,0.4,1,1v1.9C45.2,29.6,45.7,30,46.2,30z"/>
				</g>
				<g>
					<path class="st0" d="M51.9,32.2h1.2c0.5,0,1-0.4,1-1v-1c0-0.5-0.4-1-1-1h-1.2c-0.5,0-1,0.4-1,1v1
						C50.9,31.8,51.4,32.2,51.9,32.2z"/>
				</g>
				<g>
					<path class="st0" d="M33.1,39.1h-2.6c-0.5,0-1,0.4-1,1v0.4v1.6v4.6c0,0.5,0.4,1,1,1h1c0.5,0,1-0.4,1-1V43c0-0.5,0.4-1,1-1h0.6
						h2c0.5,0,1-0.4,1-1v-2v-1.6c0-0.5-0.4-1-1-1h-1c-0.5,0-1,0.4-1,1v0.6C34.1,38.6,33.7,39.1,33.1,39.1z"/>
				</g>
			</g>
		</g>
		<g>
			<path class="st0" d="M20.2,31.3v13.6h-9.5V31.3H20.2 M22,28.6h-13c-0.5,0-1,0.4-1,1v17.1c0,0.5,0.4,1,1,1h13c0.5,0,1-0.4,1-1
				V29.6C22.9,29,22.5,28.6,22,28.6L22,28.6z"/>
		</g>
		<g>
			<path class="st0" d="M25.1,33.3c0.2,0,0.4,0.2,0.4,0.4v6.7c0,0.2-0.2,0.4-0.4,0.4h-2.3v-7.5H25.1 M25.1,31.3h-4.2v11.4h4.2
				c1.3,0,2.3-1.1,2.3-2.3v-6.7C27.5,32.4,26.4,31.3,25.1,31.3L25.1,31.3z"/>
		</g>
		<g>
			<rect x="21.9" y="34.8" class="st0" width="5.6" height="2.3"/>
		</g>
		<g>
			<path class="st0" d="M13.2,35.7h4.5c0.7,0,1.3-0.6,1.3-1.3v-0.6c0-0.7-0.6-1.3-1.3-1.3h-4.5c-0.7,0-1.3,0.6-1.3,1.3v0.6
				C11.9,35.1,12.5,35.7,13.2,35.7z"/>
		</g>
		<g>
			<g>
				<g>
					<g>
						<path class="st0" d="M17.9,38.6h0.4c0.4,0,0.8-0.4,0.8-0.8v-0.4c0-0.4-0.4-0.8-0.8-0.8h-0.4c-0.4,0-0.8,0.4-0.8,0.8v0.4
							C17.1,38.3,17.4,38.6,17.9,38.6z"/>
					</g>
				</g>
				<g>
					<g>
						<path class="st0" d="M12.7,38.6h0.4c0.4,0,0.8-0.4,0.8-0.8v-0.4c0-0.4-0.4-0.8-0.8-0.8h-0.4c-0.4,0-0.8,0.4-0.8,0.8v0.4
							C11.9,38.3,12.3,38.6,12.7,38.6z"/>
					</g>
				</g>
				<g>
					<g>
						<path class="st0" d="M15.3,38.6h0.4c0.4,0,0.8-0.4,0.8-0.8l0-0.4c0-0.4-0.4-0.8-0.8-0.8h-0.4c-0.4,0-0.8,0.4-0.8,0.8v0.4
							C14.5,38.3,14.9,38.6,15.3,38.6z"/>
					</g>
				</g>
			</g>
			<g>
				<g>
					<g>
						<path class="st0" d="M17.9,41.2h0.4c0.4,0,0.8-0.4,0.8-0.8V40c0-0.4-0.4-0.8-0.8-0.8h-0.4c-0.4,0-0.8,0.4-0.8,0.8v0.4
							C17.1,40.8,17.4,41.2,17.9,41.2z"/>
					</g>
				</g>
				<g>
					<g>
						<path class="st0" d="M12.7,41.2h0.4c0.4,0,0.8-0.4,0.8-0.8V40c0-0.4-0.4-0.8-0.8-0.8h-0.4c-0.4,0-0.8,0.4-0.8,0.8v0.4
							C11.9,40.8,12.3,41.2,12.7,41.2z"/>
					</g>
				</g>
				<g>
					<g>
						<path class="st0" d="M15.3,41.2h0.4c0.4,0,0.8-0.4,0.8-0.8V40c0-0.4-0.4-0.8-0.8-0.8h-0.4c-0.4,0-0.8,0.4-0.8,0.8v0.4
							C14.5,40.8,14.9,41.2,15.3,41.2z"/>
					</g>
				</g>
			</g>
			<g>
				<g>
					<g>
						<path class="st0" d="M17.9,43.8h0.4c0.4,0,0.8-0.4,0.8-0.8v-0.4c0-0.4-0.4-0.8-0.8-0.8h-0.4c-0.4,0-0.8,0.4-0.8,0.8V43
							C17.1,43.4,17.4,43.8,17.9,43.8z"/>
					</g>
				</g>
				<g>
					<g>
						<path class="st0" d="M12.7,43.8h0.4c0.4,0,0.8-0.4,0.8-0.8v-0.4c0-0.4-0.4-0.8-0.8-0.8h-0.4c-0.4,0-0.8,0.4-0.8,0.8V43
							C11.9,43.4,12.3,43.8,12.7,43.8z"/>
					</g>
				</g>
				<g>
					<g>
						<path class="st0" d="M15.3,43.8h0.4c0.4,0,0.8-0.4,0.8-0.8l0-0.4c0-0.4-0.4-0.8-0.8-0.8h-0.4c-0.4,0-0.8,0.4-0.8,0.8V43
							C14.5,43.4,14.9,43.8,15.3,43.8z"/>
					</g>
				</g>
			</g>
		</g>
		<g>
			<path class="st0" d="M23.7,4.3v13h-13v-13H23.7 M25.4,1.6H8.9c-0.5,0-1,0.4-1,1V19c0,0.5,0.4,1,1,1h16.5c0.5,0,1-0.4,1-1V2.5
				C26.4,2,26,1.6,25.4,1.6L25.4,1.6z"/>
		</g>
		<g>
			<g>
				<path class="st0" d="M13.4,7.3h-0.7c-0.4,0-0.8-0.4-0.8-0.8V6.1c0-0.4,0.4-0.8,0.8-0.8h0.7c0.4,0,0.8,0.4,0.8,0.8v0.4
					C14.2,6.9,13.8,7.3,13.4,7.3z"/>
			</g>
		</g>
		<g>
			<g>
				<path class="st0" d="M13.4,10h-0.7c-0.4,0-0.8-0.4-0.8-0.8V8.8c0-0.4,0.4-0.8,0.8-0.8h0.7c0.4,0,0.8,0.4,0.8,0.8v0.4
					C14.2,9.6,13.8,10,13.4,10z"/>
			</g>
		</g>
		<g>
			<g>
				<path class="st0" d="M13.4,12.7h-0.7c-0.4,0-0.8-0.4-0.8-0.8v-0.4c0-0.4,0.4-0.8,0.8-0.8h0.7c0.4,0,0.8,0.4,0.8,0.8v0.4
					C14.2,12.4,13.8,12.7,13.4,12.7z"/>
			</g>
		</g>
		<g>
			<g>
				<path class="st0" d="M19.2,7.3h-0.7c-0.4,0-0.8-0.4-0.8-0.8V6.1c0-0.4,0.4-0.8,0.8-0.8h0.7c0.4,0,0.8,0.4,0.8,0.8v0.4
					C20,6.9,19.7,7.3,19.2,7.3z"/>
			</g>
		</g>
		<g>
			<g>
				<path class="st0" d="M19.2,10h-0.7c-0.4,0-0.8-0.4-0.8-0.8V8.8c0-0.4,0.4-0.8,0.8-0.8h0.7c0.4,0,0.8,0.4,0.8,0.8v0.4
					C20,9.6,19.7,10,19.2,10z"/>
			</g>
		</g>
		<g>
			<g>
				<path class="st0" d="M19.2,12.7h-0.7c-0.4,0-0.8-0.4-0.8-0.8v-0.4c0-0.4,0.4-0.8,0.8-0.8h0.7c0.4,0,0.8,0.4,0.8,0.8v0.4
					C20,12.4,19.7,12.7,19.2,12.7z"/>
			</g>
		</g>
		<g>
			<g>
				<path class="st0" d="M16.3,7.3h-0.7c-0.4,0-0.8-0.4-0.8-0.8V6.1c0-0.4,0.4-0.8,0.8-0.8h0.7c0.4,0,0.8,0.4,0.8,0.8v0.4
					C17.1,6.9,16.8,7.3,16.3,7.3z"/>
			</g>
		</g>
		<g>
			<g>
				<path class="st0" d="M16.3,10h-0.7c-0.4,0-0.8-0.4-0.8-0.8V8.8c0-0.4,0.4-0.8,0.8-0.8h0.7c0.4,0,0.8,0.4,0.8,0.8v0.4
					C17.1,9.6,16.8,10,16.3,10z"/>
			</g>
		</g>
		<g>
			<g>
				<path class="st0" d="M16.3,12.7h-0.7c-0.4,0-0.8-0.4-0.8-0.8v-0.4c0-0.4,0.4-0.8,0.8-0.8h0.7c0.4,0,0.8,0.4,0.8,0.8v0.4
					C17.1,12.4,16.8,12.7,16.3,12.7z"/>
			</g>
		</g>
		<g>
			<path class="st0" d="M21.9,16.2h-0.2c-0.3,0-0.5-0.2-0.5-0.5v-1.2c0-0.3,0.2-0.5,0.5-0.5h0.2c0.3,0,0.5,0.2,0.5,0.5v1.2
				C22.4,15.9,22.2,16.2,21.9,16.2z"/>
		</g>
		<g>
			<path class="st0" d="M11.9,15.2v-0.4c0-0.5,0.4-0.9,0.9-0.9h6.3c0.5,0,0.9,0.4,0.9,0.9v0.4c0,0.5-0.4,0.9-0.9,0.9h-6.3
				C12.3,16.2,11.9,15.7,11.9,15.2z"/>
		</g>
		<g>
			<path class="st0" d="M44.8,15.2v-0.4c0-0.5,0.4-0.9,0.9-0.9h3.4c0.5,0,0.9,0.4,0.9,0.9v0.4c0,0.5-0.4,0.9-0.9,0.9h-3.4
				C45.2,16.2,44.8,15.7,44.8,15.2z"/>
		</g>
		<g>
			<path class="st0" d="M51.3,4.3v13h-13v-13H51.3 M53.1,1.6H36.6c-0.5,0-1,0.4-1,1V19c0,0.5,0.4,1,1,1h16.5c0.5,0,1-0.4,1-1V2.6
				C54.1,2,53.6,1.6,53.1,1.6L53.1,1.6z"/>
		</g>
		<g>
			<path class="st0" d="M40.9,15.5c-0.2,0-0.5-0.1-0.7-0.3c-0.4-0.4-0.4-1,0-1.4l1.4-1.4L40.2,11c-0.4-0.4-0.4-1,0-1.4
				c0.4-0.4,1-0.4,1.4,0l2.1,2.1c0.4,0.4,0.4,1,0,1.4l-2.1,2.1C41.4,15.4,41.2,15.5,40.9,15.5z"/>
		</g>
	</g>
	<g>
		<path class="st0" d="M75.6,9.8c0-0.5,0.1-0.9,0.3-1.3c0.2-0.4,0.4-0.7,0.7-1.1c0.3-0.3,0.7-0.5,1.1-0.7c0.4-0.2,0.8-0.3,1.3-0.3
			c0.5,0,0.9,0.1,1.3,0.3C80.6,7,81,7.2,81.3,7.5c0.3,0.3,0.5,0.7,0.7,1.1c0.2,0.4,0.3,0.8,0.3,1.3c0,0.5-0.1,0.9-0.3,1.3
			c-0.2,0.4-0.4,0.8-0.7,1.1c-0.3,0.3-0.7,0.5-1.1,0.7c-0.4,0.2-0.8,0.3-1.3,0.3c-0.5,0-0.9-0.1-1.3-0.3c-0.4-0.2-0.8-0.4-1.1-0.7
			c-0.3-0.3-0.5-0.7-0.7-1.1C75.7,10.7,75.6,10.3,75.6,9.8z M75.8,18.2c0-0.4,0.1-0.8,0.3-1.2c0.2-0.4,0.4-0.7,0.7-1
			c0.3-0.3,0.6-0.5,1-0.7c0.4-0.2,0.8-0.2,1.2-0.2c0.4,0,0.8,0.1,1.2,0.2c0.4,0.2,0.7,0.4,1,0.7c0.3,0.3,0.5,0.6,0.6,1
			c0.2,0.4,0.2,0.8,0.2,1.2v16.7c0,0.4-0.1,0.8-0.2,1.2c-0.2,0.4-0.4,0.7-0.7,1c-0.3,0.3-0.6,0.5-1,0.7c-0.4,0.2-0.8,0.2-1.2,0.2
			c-0.4,0-0.8-0.1-1.2-0.2c-0.4-0.2-0.7-0.4-1-0.7c-0.3-0.3-0.5-0.6-0.7-1c-0.2-0.4-0.3-0.8-0.3-1.2V18.2z"/>
		<path class="st0" d="M85.8,19.5c-0.2-0.4-0.3-0.8-0.3-1.3c0-0.4,0.1-0.8,0.2-1.2c0.2-0.4,0.4-0.7,0.6-1c0.3-0.3,0.6-0.5,1-0.7
			c0.4-0.2,0.8-0.3,1.3-0.3c0.6,0,1.1,0.2,1.7,0.5c0.5,0.3,0.9,0.8,1.2,1.4l4.3,10.3l4.3-10.3c0.2-0.6,0.6-1,1.1-1.4
			c0.5-0.3,1.1-0.5,1.7-0.5c0.5,0,0.9,0.1,1.3,0.3c0.4,0.2,0.7,0.4,1,0.7c0.3,0.3,0.5,0.6,0.7,1c0.2,0.4,0.2,0.8,0.2,1.1
			c0,0.2,0,0.4-0.1,0.7c-0.1,0.2-0.1,0.4-0.2,0.7l-7.1,16.3c-0.2,0.5-0.6,0.9-1,1.3c-0.5,0.4-1,0.6-1.7,0.6c-0.7,0-1.3-0.2-1.8-0.5
			c-0.5-0.3-1-0.8-1.2-1.4L85.8,19.5z"/>
		<path class="st0" d="M114.3,29.3c0.5,0.8,1.1,1.5,1.9,1.9c0.8,0.5,1.7,0.7,2.6,0.7c0.6,0,1.1-0.1,1.5-0.2c0.4-0.1,0.7-0.2,1-0.4
			c0.3-0.2,0.6-0.3,0.9-0.4c0.3-0.1,0.6-0.1,0.9-0.1c0.4,0,0.8,0.1,1.2,0.3c0.4,0.2,0.7,0.4,1,0.7c0.3,0.3,0.5,0.6,0.6,1
			c0.2,0.4,0.2,0.8,0.2,1.2c0,0.5-0.1,1-0.4,1.5c-0.3,0.5-0.7,0.9-1.4,1.2c-0.6,0.4-1.4,0.6-2.3,0.8c-0.9,0.2-2,0.3-3.2,0.3
			c-1.6,0-3.1-0.3-4.5-0.9c-1.4-0.6-2.6-1.4-3.7-2.4c-1-1-1.9-2.2-2.5-3.6c-0.6-1.4-0.9-2.9-0.9-4.4c0-1.6,0.3-3.1,0.9-4.5
			c0.6-1.4,1.4-2.6,2.5-3.6c1-1,2.3-1.9,3.7-2.4c1.4-0.6,2.9-0.9,4.5-0.9c1.6,0,3,0.3,4.4,0.9c1.4,0.6,2.6,1.4,3.6,2.4
			c1,1,1.9,2.2,2.5,3.6c0.6,1.4,0.9,2.8,1,4.4c0,0.9-0.3,1.6-0.9,2.1c-0.6,0.5-1.3,0.8-2.2,0.8H114.3z M123.9,24.1
			c-0.4-0.9-1.1-1.7-2-2.2c-0.9-0.6-1.9-0.8-3-0.8c-1.2,0-2.2,0.3-3,0.9c-0.8,0.6-1.5,1.3-1.9,2.2H123.9z"/>
		<path class="st0" d="M132.7,26.2c0-1.5,0.3-3,0.9-4.3c0.6-1.3,1.4-2.5,2.4-3.5s2.2-1.8,3.5-2.4c1.3-0.6,2.8-0.9,4.3-0.9
			c1.5,0,3,0.3,4.4,0.9c1.4,0.6,2.6,1.4,3.6,2.4c1,1,1.9,2.2,2.5,3.5c0.6,1.3,0.9,2.8,0.9,4.3v8.4c0,0.4-0.1,0.8-0.2,1.2
			c-0.2,0.4-0.4,0.7-0.6,1c-0.3,0.3-0.6,0.5-1,0.6c-0.4,0.2-0.8,0.2-1.2,0.2c-0.4,0-0.8-0.1-1.2-0.2c-0.4-0.2-0.7-0.4-1-0.6
			c-0.3-0.3-0.5-0.6-0.7-1c-0.2-0.4-0.2-0.8-0.2-1.2v-8.4c0-0.7-0.2-1.3-0.5-1.9c-0.3-0.6-0.7-1.1-1.2-1.6c-0.5-0.4-1-0.8-1.7-1.1
			c-0.6-0.3-1.3-0.4-1.9-0.4c-0.7,0-1.3,0.1-1.9,0.4c-0.6,0.2-1.1,0.6-1.5,1c-0.4,0.4-0.8,0.9-1,1.5c-0.3,0.6-0.4,1.2-0.4,1.9v8.5
			c0,0.4-0.1,0.8-0.2,1.2c-0.2,0.4-0.4,0.7-0.7,1c-0.3,0.3-0.6,0.5-1,0.6c-0.4,0.2-0.8,0.2-1.2,0.2c-0.4,0-0.8-0.1-1.2-0.2
			c-0.4-0.2-0.7-0.4-1-0.6c-0.3-0.3-0.5-0.6-0.7-1c-0.2-0.4-0.3-0.8-0.3-1.2V26.2z"/>
		<path class="st0" d="M158.3,26.5c0-1.6,0.3-3.1,0.9-4.4c0.6-1.4,1.4-2.6,2.5-3.6c1-1,2.2-1.9,3.6-2.5c1.4-0.6,2.9-0.9,4.4-0.9
			c1.3,0,2.4,0.2,3.2,0.5c0.8,0.3,1.5,0.8,2,1.5V10c0-0.5,0.1-0.9,0.2-1.3c0.2-0.4,0.4-0.7,0.6-1c0.3-0.3,0.6-0.5,1-0.7
			c0.4-0.2,0.8-0.2,1.2-0.2c0.4,0,0.8,0.1,1.2,0.2c0.4,0.2,0.7,0.4,1,0.7c0.3,0.3,0.5,0.6,0.7,1c0.2,0.4,0.2,0.8,0.2,1.3v16.5
			c0,1.6-0.3,3.1-0.9,4.4c-0.6,1.4-1.4,2.6-2.4,3.6c-1,1-2.2,1.8-3.6,2.4c-1.4,0.6-2.9,0.9-4.4,0.9c-1.6,0-3.1-0.3-4.4-0.9
			c-1.4-0.6-2.6-1.4-3.6-2.4c-1-1-1.9-2.2-2.5-3.6C158.6,29.6,158.3,28.1,158.3,26.5z M164.5,26.5c0,0.7,0.1,1.4,0.4,2
			c0.3,0.6,0.6,1.2,1.1,1.6c0.5,0.5,1,0.8,1.7,1.1c0.6,0.3,1.3,0.4,2,0.4c0.7,0,1.4-0.1,2-0.4c0.6-0.3,1.2-0.6,1.7-1.1
			c0.5-0.5,0.8-1,1.1-1.6c0.3-0.6,0.4-1.3,0.4-2c0-0.7-0.1-1.4-0.4-2c-0.3-0.6-0.6-1.2-1.1-1.6c-0.5-0.5-1-0.8-1.7-1.1
			c-0.6-0.3-1.3-0.4-2-0.4c-0.7,0-1.4,0.1-2,0.4c-0.6,0.3-1.2,0.6-1.7,1.1c-0.5,0.5-0.9,1-1.1,1.6C164.7,25.1,164.5,25.8,164.5,26.5
			z"/>
		<path class="st0" d="M185.3,26.3c0-1.5,0.3-3,0.9-4.4c0.6-1.4,1.4-2.6,2.5-3.6c1-1,2.2-1.8,3.6-2.4c1.4-0.6,2.8-0.9,4.4-0.9
			c1.6,0,3,0.3,4.4,0.9c1.4,0.6,2.6,1.4,3.6,2.5c1,1,1.8,2.3,2.4,3.6c0.6,1.4,0.9,2.9,0.9,4.4c0,1.6-0.3,3.1-0.9,4.4
			c-0.6,1.4-1.4,2.6-2.4,3.6c-1,1-2.2,1.8-3.6,2.4c-1.4,0.6-2.9,0.9-4.4,0.9c-0.9,0-1.8-0.1-2.7-0.3c-0.9-0.2-1.7-0.5-2.5-0.9v5.9
			c0,0.5-0.1,0.9-0.2,1.3c-0.1,0.4-0.4,0.7-0.6,1c-0.3,0.3-0.6,0.5-1,0.7c-0.4,0.2-0.8,0.2-1.2,0.2c-0.4,0-0.8-0.1-1.2-0.2
			c-0.4-0.2-0.7-0.4-1-0.7c-0.3-0.3-0.5-0.6-0.7-1c-0.2-0.4-0.3-0.8-0.3-1.3V26.3z M191.6,26.5c0,0.7,0.1,1.4,0.4,2
			c0.3,0.6,0.6,1.2,1.1,1.6c0.5,0.5,1,0.8,1.7,1.1c0.6,0.3,1.3,0.4,2,0.4c0.7,0,1.4-0.1,2-0.4c0.6-0.3,1.2-0.6,1.6-1.1
			c0.5-0.5,0.8-1,1.1-1.6c0.3-0.6,0.4-1.3,0.4-2c0-0.7-0.1-1.4-0.4-2c-0.3-0.6-0.6-1.2-1.1-1.6c-0.5-0.5-1-0.8-1.6-1.1
			c-0.6-0.3-1.3-0.4-2-0.4c-0.7,0-1.4,0.1-2,0.4c-0.6,0.3-1.2,0.6-1.7,1.1c-0.5,0.5-0.9,1-1.1,1.6C191.7,25.1,191.6,25.8,191.6,26.5
			z"/>
		<path class="st0" d="M221.6,37.9c-1.6,0-3.1-0.3-4.4-0.9c-1.4-0.6-2.6-1.4-3.6-2.4c-1-1-1.9-2.2-2.5-3.6c-0.6-1.4-0.9-2.9-0.9-4.4
			c0-1.6,0.3-3.1,0.9-4.4c0.6-1.4,1.4-2.6,2.5-3.6c1-1,2.2-1.9,3.6-2.5c1.4-0.6,2.9-0.9,4.4-0.9c1.6,0,3,0.3,4.4,0.9
			c1.4,0.6,2.6,1.4,3.6,2.4c1,1,1.8,2.2,2.5,3.6c0.6,1.4,0.9,2.8,1,4.4v8.4c0,0.5-0.1,0.9-0.2,1.3c-0.2,0.4-0.4,0.7-0.7,1
			c-0.3,0.3-0.6,0.5-1,0.7c-0.4,0.2-0.8,0.2-1.2,0.2c-0.6,0-1.1-0.1-1.6-0.4c-0.4-0.3-0.8-0.6-1.1-1.1c-0.8,0.5-1.7,0.8-2.7,1.1
			C223.7,37.8,222.7,37.9,221.6,37.9z M221.6,31.7c0.7,0,1.4-0.1,2-0.4c0.6-0.3,1.2-0.6,1.7-1.1c0.5-0.5,0.8-1,1.1-1.6
			c0.3-0.6,0.4-1.3,0.4-2c0-0.7-0.1-1.4-0.4-2c-0.3-0.6-0.6-1.2-1.1-1.6c-0.5-0.5-1-0.8-1.7-1.1c-0.6-0.3-1.3-0.4-2-0.4
			c-0.7,0-1.4,0.1-2,0.4c-0.6,0.3-1.2,0.6-1.7,1.1c-0.5,0.5-0.9,1-1.1,1.6c-0.3,0.6-0.4,1.3-0.4,2c0,0.7,0.1,1.4,0.4,2
			c0.3,0.6,0.6,1.2,1.1,1.6c0.5,0.5,1,0.8,1.7,1.1C220.3,31.5,220.9,31.7,221.6,31.7z"/>
		<path class="st0" d="M236.8,18.2c0-0.4,0.1-0.8,0.2-1.2c0.2-0.4,0.4-0.7,0.7-1c0.3-0.3,0.6-0.5,1-0.7c0.4-0.2,0.8-0.2,1.2-0.2
			c0.4,0,0.8,0.1,1.2,0.2c0.4,0.2,0.7,0.4,1,0.7c0.3,0.3,0.5,0.6,0.7,1c0.2,0.4,0.2,0.8,0.2,1.2v8.7c0,0.7,0.1,1.3,0.4,1.9
			c0.2,0.6,0.6,1.1,1,1.5c0.4,0.4,1,0.8,1.5,1c0.6,0.2,1.2,0.4,1.9,0.4c0.7,0,1.3-0.1,1.9-0.4c0.6-0.3,1.1-0.6,1.5-1.1
			c0.4-0.5,0.8-1,1-1.6c0.2-0.6,0.4-1.2,0.4-1.9v-8.5c0-0.4,0.1-0.8,0.3-1.2c0.2-0.4,0.4-0.7,0.7-1c0.3-0.3,0.6-0.5,1-0.7
			c0.4-0.2,0.8-0.2,1.2-0.2c0.4,0,0.8,0.1,1.2,0.2c0.4,0.2,0.7,0.4,1,0.7c0.3,0.3,0.5,0.6,0.6,1c0.1,0.4,0.2,0.8,0.2,1.2v8.7
			c0,1.3-0.2,2.5-0.6,3.6c-0.4,1.1-1,2.2-1.7,3.1c-0.7,0.9-1.6,1.7-2.6,2.4c-1,0.7-2.1,1.2-3.2,1.5v5.1c0,0.5-0.1,0.9-0.2,1.3
			c-0.2,0.4-0.4,0.7-0.7,1c-0.3,0.3-0.6,0.5-1,0.7c-0.4,0.2-0.8,0.2-1.2,0.2c-0.4,0-0.9-0.1-1.2-0.2c-0.4-0.2-0.7-0.4-1-0.7
			c-0.3-0.3-0.5-0.6-0.7-1c-0.2-0.4-0.2-0.8-0.2-1.3v-5.1c-1.2-0.4-2.2-0.9-3.2-1.6c-1-0.7-1.8-1.5-2.5-2.4c-0.7-0.9-1.2-2-1.6-3.1
			c-0.4-1.1-0.6-2.3-0.6-3.6V18.2z"/>
	</g>
</g>
</svg>
